<svg width="23" height="23" viewBox="0 0 23 23" fill="none" xmlns="http://www.w3.org/2000/svg">
<path d="M22.2812 17.25H7.1875V16.5312C7.1875 16.1359 6.86406 15.8125 6.46875 15.8125H5.03125C4.63594 15.8125 4.3125 16.1359 4.3125 16.5312V17.25H0.71875C0.323437 17.25 0 17.5734 0 17.9688V19.4062C0 19.8016 0.323437 20.125 0.71875 20.125H4.3125V20.8438C4.3125 21.2391 4.63594 21.5625 5.03125 21.5625H6.46875C6.86406 21.5625 7.1875 21.2391 7.1875 20.8438V20.125H22.2812C22.6766 20.125 23 19.8016 23 19.4062V17.9688C23 17.5734 22.6766 17.25 22.2812 17.25ZM22.2812 10.0625H18.6875V9.34375C18.6875 8.94844 18.3641 8.625 17.9688 8.625H16.5312C16.1359 8.625 15.8125 8.94844 15.8125 9.34375V10.0625H0.71875C0.323437 10.0625 0 10.3859 0 10.7812V12.2188C0 12.6141 0.323437 12.9375 0.71875 12.9375H15.8125V13.6562C15.8125 14.0516 16.1359 14.375 16.5312 14.375H17.9688C18.3641 14.375 18.6875 14.0516 18.6875 13.6562V12.9375H22.2812C22.6766 12.9375 23 12.6141 23 12.2188V10.7812C23 10.3859 22.6766 10.0625 22.2812 10.0625ZM22.2812 2.875H12.9375V2.15625C12.9375 1.76094 12.6141 1.4375 12.2188 1.4375H10.7812C10.3859 1.4375 10.0625 1.76094 10.0625 2.15625V2.875H0.71875C0.323437 2.875 0 3.19844 0 3.59375V5.03125C0 5.42656 0.323437 5.75 0.71875 5.75H10.0625V6.46875C10.0625 6.86406 10.3859 7.1875 10.7812 7.1875H12.2188C12.6141 7.1875 12.9375 6.86406 12.9375 6.46875V5.75H22.2812C22.6766 5.75 23 5.42656 23 5.03125V3.59375C23 3.19844 22.6766 2.875 22.2812 2.875Z" fill="white"/>
</svg>
