<svg width="23" height="23" viewBox="0 0 23 23" fill="none" xmlns="http://www.w3.org/2000/svg">
<g clip-path="url(#clip0)">
<path d="M13.6563 18.6875H10.7813C10.5907 18.6875 10.4078 18.7632 10.2731 18.898C10.1383 19.0328 10.0625 19.2156 10.0625 19.4062V20.8438C10.0625 21.0344 10.1383 21.2172 10.2731 21.352C10.4078 21.4868 10.5907 21.5625 10.7813 21.5625H13.6563C13.8469 21.5625 14.0297 21.4868 14.1645 21.352C14.2993 21.2172 14.375 21.0344 14.375 20.8438V19.4062C14.375 19.2156 14.2993 19.0328 14.1645 18.898C14.0297 18.7632 13.8469 18.6875 13.6563 18.6875ZM7.90629 15.8125H5.75004V2.15625C5.75004 1.96563 5.67431 1.78281 5.53952 1.64802C5.40473 1.51323 5.22191 1.4375 5.03129 1.4375H3.59379C3.40316 1.4375 3.22034 1.51323 3.08555 1.64802C2.95076 1.78281 2.87504 1.96563 2.87504 2.15625V15.8125H0.718785C0.0813432 15.8125 -0.241196 16.587 0.211617 17.0393L3.80537 21.3518C3.94015 21.4865 4.12289 21.5622 4.31343 21.5622C4.50398 21.5622 4.68672 21.4865 4.8215 21.3518L8.41525 17.0393C8.86537 16.5879 8.54508 15.8125 7.90629 15.8125ZM19.4063 7.1875H10.7813C10.5907 7.1875 10.4078 7.26323 10.2731 7.39802C10.1383 7.53281 10.0625 7.71563 10.0625 7.90625V9.34375C10.0625 9.53437 10.1383 9.71719 10.2731 9.85198C10.4078 9.98677 10.5907 10.0625 10.7813 10.0625H19.4063C19.5969 10.0625 19.7797 9.98677 19.9145 9.85198C20.0493 9.71719 20.125 9.53437 20.125 9.34375V7.90625C20.125 7.71563 20.0493 7.53281 19.9145 7.39802C19.7797 7.26323 19.5969 7.1875 19.4063 7.1875ZM16.5313 12.9375H10.7813C10.5907 12.9375 10.4078 13.0132 10.2731 13.148C10.1383 13.2828 10.0625 13.4656 10.0625 13.6562V15.0938C10.0625 15.2844 10.1383 15.4672 10.2731 15.602C10.4078 15.7368 10.5907 15.8125 10.7813 15.8125H16.5313C16.7219 15.8125 16.9047 15.7368 17.0395 15.602C17.1743 15.4672 17.25 15.2844 17.25 15.0938V13.6562C17.25 13.4656 17.1743 13.2828 17.0395 13.148C16.9047 13.0132 16.7219 12.9375 16.5313 12.9375ZM22.2813 1.4375H10.7813C10.5907 1.4375 10.4078 1.51323 10.2731 1.64802C10.1383 1.78281 10.0625 1.96563 10.0625 2.15625V3.59375C10.0625 3.78437 10.1383 3.96719 10.2731 4.10198C10.4078 4.23677 10.5907 4.3125 10.7813 4.3125H22.2813C22.4719 4.3125 22.6547 4.23677 22.7895 4.10198C22.9243 3.96719 23 3.78437 23 3.59375V2.15625C23 1.96563 22.9243 1.78281 22.7895 1.64802C22.6547 1.51323 22.4719 1.4375 22.2813 1.4375Z" fill="white"/>
</g>
<defs>
<clipPath id="clip0">
<rect width="23" height="23" fill="white"/>
</clipPath>
</defs>
</svg>
