<svg width="28" height="26" viewBox="0 0 28 26" fill="none" xmlns="http://www.w3.org/2000/svg">
<path d="M13.7416 0C6.2973 0 0.263184 5.96692 0.263184 13.3283C0.263184 19.2165 4.12352 24.2151 9.48302 25.9756C10.1576 26.1007 10.4059 25.6883 10.4059 25.3363C10.4059 25.0166 10.3919 23.9696 10.3872 22.8531C6.63461 23.6592 5.84755 21.278 5.84755 21.278C5.23384 19.7353 4.35308 19.3276 4.35308 19.3276C3.13033 18.4984 4.44678 18.5169 4.44678 18.5169C5.80071 18.6096 6.51281 19.8928 6.51281 19.8928C7.71682 21.9312 9.66573 21.3429 10.434 21C10.5559 20.1384 10.9025 19.55 11.2914 19.2165C8.29774 18.8783 5.14951 17.734 5.14951 12.6288C5.14951 11.1741 5.67421 9.98348 6.53623 9.0523C6.39568 8.71875 5.93657 7.36137 6.66741 5.52682C6.66741 5.52682 7.80115 5.1701 10.3778 6.89346C11.4553 6.59697 12.6078 6.44873 13.7509 6.44409C14.8987 6.44873 16.0512 6.59697 17.1287 6.89346C19.7007 5.1701 20.8345 5.52682 20.8345 5.52682C21.57 7.36137 21.1062 8.71875 20.9656 9.0523C21.8277 9.98811 22.3524 11.1741 22.3524 12.6288C22.3524 17.7479 19.1994 18.8783 16.1964 19.2072C16.679 19.6195 17.11 20.4302 17.11 21.6764C17.11 23.46 17.0959 24.8962 17.0959 25.3363C17.0959 25.693 17.3396 26.1053 18.0235 25.9756C23.3784 24.2105 27.234 19.2165 27.234 13.3283C27.2246 5.96692 21.1905 0 13.7416 0Z" fill="white"/>
<path d="M5.31337 18.9893C5.28526 19.0542 5.17751 19.0774 5.08382 19.031C4.98544 18.9893 4.92922 18.8967 4.96201 18.8318C4.99012 18.7623 5.09787 18.7438 5.19625 18.7901C5.28995 18.8318 5.34617 18.9245 5.31337 18.9893ZM5.97393 19.5731C5.90834 19.6333 5.78185 19.6055 5.69752 19.5128C5.60851 19.4202 5.59446 19.2951 5.66005 19.2349C5.72563 19.1747 5.84744 19.2025 5.93645 19.2951C6.02546 19.3924 6.0442 19.5128 5.97393 19.5731ZM6.42835 20.3236C6.34402 20.3792 6.21285 20.3282 6.12852 20.2078C6.0442 20.0873 6.0442 19.9483 6.12852 19.8881C6.21285 19.8325 6.34402 19.8835 6.42835 19.9993C6.51267 20.1244 6.51267 20.2633 6.42835 20.3236ZM7.20134 21.1899C7.12638 21.2686 6.97178 21.2501 6.85466 21.1389C6.73754 21.0324 6.70475 20.8795 6.77971 20.7961C6.85466 20.7173 7.01394 20.7359 7.13106 20.8471C7.2435 20.9583 7.27629 21.1111 7.20134 21.1899ZM8.19451 21.4817C8.16171 21.5883 8.0118 21.6346 7.8572 21.5883C7.70261 21.542 7.60423 21.4215 7.63702 21.315C7.66981 21.2084 7.81973 21.1621 7.97432 21.2084C8.12424 21.2547 8.2273 21.3752 8.19451 21.4817ZM9.32354 21.6068C9.32822 21.718 9.19705 21.806 9.03777 21.8107C8.87848 21.8153 8.74731 21.7273 8.74263 21.6161C8.74263 21.5049 8.86911 21.4169 9.0284 21.4123C9.19236 21.4076 9.32354 21.4956 9.32354 21.6068ZM10.4385 21.5651C10.4573 21.6717 10.3448 21.7829 10.1855 21.8107C10.0309 21.8385 9.88571 21.7736 9.86229 21.6671C9.84355 21.5559 9.95598 21.4447 10.1106 21.4169C10.2745 21.3891 10.4151 21.454 10.4385 21.5651Z" fill="white"/>
</svg>
