<svg width="320" height="32" viewBox="0 0 320 32" fill="none" xmlns="http://www.w3.org/2000/svg">
<path d="M137.448 4.81014H140.052V13.0001H142.012V4.81014H144.616V3.22814H137.448V4.81014Z" fill="white"/>
<path d="M146.046 13.0001H148.006V8.71614C148.006 7.47014 148.692 6.79814 149.756 6.79814C150.792 6.79814 151.478 7.47014 151.478 8.71614V13.0001H153.438V8.45014C153.438 6.30814 152.164 5.13214 150.414 5.13214C149.378 5.13214 148.51 5.55214 148.006 6.21014V2.64014H146.046V13.0001Z" fill="white"/>
<path d="M158.634 6.72814C159.642 6.72814 160.454 7.37214 160.482 8.39414H156.8C156.954 7.33014 157.696 6.72814 158.634 6.72814ZM162.316 10.5641H160.202C159.95 11.0821 159.488 11.5021 158.648 11.5021C157.668 11.5021 156.884 10.8581 156.786 9.71014H162.456C162.498 9.45814 162.512 9.20614 162.512 8.95414C162.512 6.64414 160.93 5.11814 158.69 5.11814C156.394 5.11814 154.798 6.67214 154.798 9.12214C154.798 11.5581 156.436 13.1261 158.69 13.1261C160.608 13.1261 161.896 11.9921 162.316 10.5641Z" fill="white"/>
<path d="M176.812 8.08614C176.812 5.16014 174.6 3.08814 171.814 3.08814C169.056 3.08814 166.802 5.16014 166.802 8.08614C166.802 11.0261 169.056 13.0981 171.814 13.0981C174.586 13.0981 176.812 11.0261 176.812 8.08614ZM168.818 8.08614C168.818 6.09814 170.036 4.85214 171.814 4.85214C173.578 4.85214 174.796 6.09814 174.796 8.08614C174.796 10.0741 173.578 11.3481 171.814 11.3481C170.036 11.3481 168.818 10.0741 168.818 8.08614Z" fill="white"/>
<path d="M180.231 6.36414V5.24414H178.271V16.6961H180.231V11.8941C180.707 12.5241 181.575 13.1261 182.793 13.1261C184.781 13.1261 186.335 11.5161 186.335 9.09414C186.335 6.67214 184.781 5.11814 182.793 5.11814C181.589 5.11814 180.693 5.70614 180.231 6.36414ZM184.333 9.09414C184.333 10.5641 183.339 11.4041 182.275 11.4041C181.225 11.4041 180.231 10.5921 180.231 9.12214C180.231 7.65214 181.225 6.84014 182.275 6.84014C183.339 6.84014 184.333 7.62414 184.333 9.09414Z" fill="white"/>
<path d="M191.091 6.72814C192.099 6.72814 192.911 7.37214 192.939 8.39414H189.257C189.411 7.33014 190.153 6.72814 191.091 6.72814ZM194.773 10.5641H192.659C192.407 11.0821 191.945 11.5021 191.105 11.5021C190.125 11.5021 189.341 10.8581 189.243 9.71014H194.913C194.955 9.45814 194.969 9.20614 194.969 8.95414C194.969 6.64414 193.387 5.11814 191.147 5.11814C188.851 5.11814 187.255 6.67214 187.255 9.12214C187.255 11.5581 188.893 13.1261 191.147 13.1261C193.065 13.1261 194.353 11.9921 194.773 10.5641Z" fill="white"/>
<path d="M201.832 13.0001H203.792V8.45014C203.792 6.30814 202.504 5.13214 200.698 5.13214C199.704 5.13214 198.864 5.55214 198.36 6.21014V5.24414H196.4V13.0001H198.36V8.71614C198.36 7.47014 199.046 6.79814 200.11 6.79814C201.146 6.79814 201.832 7.47014 201.832 8.71614V13.0001Z" fill="white"/>
<path d="M215.823 10.1721C215.823 6.72814 210.811 7.82014 210.811 5.86014C210.811 5.06214 211.385 4.68414 212.155 4.71214C212.995 4.72614 213.513 5.23014 213.555 5.87414H215.711C215.585 4.11014 214.213 3.08814 212.211 3.08814C210.195 3.08814 208.767 4.15214 208.767 5.91614C208.753 9.45814 213.793 8.18414 213.793 10.2981C213.793 10.9981 213.247 11.4881 212.323 11.4881C211.413 11.4881 210.895 10.9701 210.839 10.1861H208.739C208.767 12.0341 210.335 13.0981 212.365 13.0981C214.591 13.0981 215.823 11.7121 215.823 10.1721Z" fill="white"/>
<path d="M225.013 9.12214C225.013 6.67214 223.263 5.11814 221.023 5.11814C218.783 5.11814 217.033 6.67214 217.033 9.12214C217.033 11.5581 218.727 13.1261 220.967 13.1261C223.221 13.1261 225.013 11.5581 225.013 9.12214ZM219.021 9.12214C219.021 7.56814 219.959 6.82614 220.995 6.82614C222.031 6.82614 222.997 7.56814 222.997 9.12214C222.997 10.6621 222.003 11.4181 220.967 11.4181C219.917 11.4181 219.021 10.6621 219.021 9.12214Z" fill="white"/>
<path d="M233.772 5.24414H231.798V9.51414C231.798 10.7601 231.126 11.4321 230.062 11.4321C229.026 11.4321 228.34 10.7601 228.34 9.51414V5.24414H226.38V9.79414C226.38 11.9221 227.682 13.0981 229.488 13.0981C230.454 13.0981 231.308 12.6781 231.798 12.0201V13.0001H233.772V5.24414Z" fill="white"/>
<path d="M237.666 9.13614C237.666 7.63814 238.366 7.19014 239.528 7.19014H240.046V5.13214C238.968 5.13214 238.156 5.65014 237.666 6.44814V5.24414H235.706V13.0001H237.666V9.13614Z" fill="white"/>
<path d="M240.862 9.12214C240.862 11.5581 242.458 13.1261 244.698 13.1261C246.63 13.1261 247.932 12.0341 248.352 10.3821H246.238C246 11.0821 245.496 11.4461 244.684 11.4461C243.592 11.4461 242.864 10.6341 242.864 9.12214C242.864 7.61014 243.592 6.78414 244.684 6.78414C245.496 6.78414 246.014 7.20414 246.238 7.86214H248.352C247.932 6.12614 246.63 5.11814 244.698 5.11814C242.458 5.11814 240.862 6.68614 240.862 9.12214Z" fill="white"/>
<path d="M253.12 6.72814C254.128 6.72814 254.94 7.37214 254.968 8.39414H251.286C251.44 7.33014 252.182 6.72814 253.12 6.72814ZM256.802 10.5641H254.688C254.436 11.0821 253.974 11.5021 253.134 11.5021C252.154 11.5021 251.37 10.8581 251.272 9.71014H256.942C256.984 9.45814 256.998 9.20614 256.998 8.95414C256.998 6.64414 255.416 5.11814 253.176 5.11814C250.88 5.11814 249.284 6.67214 249.284 9.12214C249.284 11.5581 250.922 13.1261 253.176 13.1261C255.094 13.1261 256.382 11.9921 256.802 10.5641Z" fill="white"/>
<path d="M261.765 13.0001H263.725V6.64414L266.357 13.0001H267.841L270.459 6.64414V13.0001H272.419V3.22814H270.207L267.099 10.4941L263.991 3.22814H261.765V13.0001Z" fill="white"/>
<path d="M274.357 3.22814V13.0001H279.537V11.4461H276.317V3.22814H274.357Z" fill="white"/>
<path d="M290.316 8.08614C290.316 5.16014 288.104 3.08814 285.318 3.08814C282.56 3.08814 280.306 5.16014 280.306 8.08614C280.306 11.0261 282.56 13.0981 285.318 13.0981C288.09 13.0981 290.316 11.0261 290.316 8.08614ZM282.322 8.08614C282.322 6.09814 283.54 4.85214 285.318 4.85214C287.082 4.85214 288.3 6.09814 288.3 8.08614C288.3 10.0741 287.082 11.3481 285.318 11.3481C283.54 11.3481 282.322 10.0741 282.322 8.08614Z" fill="white"/>
<path d="M293.735 6.36414V5.24414H291.775V16.6961H293.735V11.8941C294.211 12.5241 295.079 13.1261 296.297 13.1261C298.285 13.1261 299.839 11.5161 299.839 9.09414C299.839 6.67214 298.285 5.11814 296.297 5.11814C295.093 5.11814 294.197 5.70614 293.735 6.36414ZM297.837 9.09414C297.837 10.5641 296.843 11.4041 295.779 11.4041C294.729 11.4041 293.735 10.5921 293.735 9.12214C293.735 7.65214 294.729 6.84014 295.779 6.84014C296.843 6.84014 297.837 7.62414 297.837 9.09414Z" fill="white"/>
<path d="M307.283 10.7881C307.227 7.94614 302.929 8.82814 302.929 7.41414C302.929 6.96614 303.307 6.67214 304.035 6.67214C304.805 6.67214 305.281 7.07814 305.337 7.68014H307.213C307.101 6.14014 305.967 5.11814 304.091 5.11814C302.173 5.11814 301.025 6.15414 301.025 7.44214C301.025 10.2841 305.407 9.40214 305.407 10.7881C305.407 11.2361 304.987 11.5861 304.217 11.5861C303.433 11.5861 302.887 11.1381 302.817 10.5501H300.843C300.927 11.9921 302.285 13.1261 304.231 13.1261C306.121 13.1261 307.283 12.1181 307.283 10.7881Z" fill="white"/>
<path d="M147.5 26.0861C147.5 23.1601 145.288 21.0881 142.502 21.0881C139.744 21.0881 137.49 23.1601 137.49 26.0861C137.49 29.0261 139.744 31.0981 142.502 31.0981C145.274 31.0981 147.5 29.0261 147.5 26.0861ZM139.506 26.0861C139.506 24.0981 140.724 22.8521 142.502 22.8521C144.266 22.8521 145.484 24.0981 145.484 26.0861C145.484 28.0741 144.266 29.3481 142.502 29.3481C140.724 29.3481 139.506 28.0741 139.506 26.0861Z" fill="white"/>
<path d="M150.918 27.1361C150.918 25.6381 151.618 25.1901 152.78 25.1901H153.298V23.1321C152.22 23.1321 151.408 23.6501 150.918 24.4481V23.2441H148.958V31.0001H150.918V27.1361Z" fill="white"/>
<path d="M154.114 27.1221C154.114 29.5581 155.71 31.1261 157.95 31.1261C159.882 31.1261 161.184 30.0341 161.604 28.3821H159.49C159.252 29.0821 158.748 29.4461 157.936 29.4461C156.844 29.4461 156.116 28.6341 156.116 27.1221C156.116 25.6101 156.844 24.7841 157.936 24.7841C158.748 24.7841 159.266 25.2041 159.49 25.8621H161.604C161.184 24.1261 159.882 23.1181 157.95 23.1181C155.71 23.1181 154.114 24.6861 154.114 27.1221Z" fill="white"/>
<path d="M163.04 31.0001H165V26.7161C165 25.4701 165.686 24.7981 166.75 24.7981C167.786 24.7981 168.472 25.4701 168.472 26.7161V31.0001H170.432V26.4501C170.432 24.3081 169.158 23.1321 167.408 23.1321C166.372 23.1321 165.504 23.5521 165 24.2101V20.6401H163.04V31.0001Z" fill="white"/>
<path d="M175.628 24.7281C176.636 24.7281 177.448 25.3721 177.476 26.3941H173.794C173.948 25.3301 174.69 24.7281 175.628 24.7281ZM179.31 28.5641H177.196C176.944 29.0821 176.482 29.5021 175.642 29.5021C174.662 29.5021 173.878 28.8581 173.78 27.7101H179.45C179.492 27.4581 179.506 27.2061 179.506 26.9541C179.506 24.6441 177.924 23.1181 175.684 23.1181C173.388 23.1181 171.792 24.6721 171.792 27.1221C171.792 29.5581 173.43 31.1261 175.684 31.1261C177.602 31.1261 178.89 29.9921 179.31 28.5641Z" fill="white"/>
<path d="M186.957 28.7881C186.901 25.9461 182.603 26.8281 182.603 25.4141C182.603 24.9661 182.981 24.6721 183.709 24.6721C184.479 24.6721 184.955 25.0781 185.011 25.6801H186.887C186.775 24.1401 185.641 23.1181 183.765 23.1181C181.847 23.1181 180.699 24.1541 180.699 25.4421C180.699 28.2841 185.081 27.4021 185.081 28.7881C185.081 29.2361 184.661 29.5861 183.891 29.5861C183.107 29.5861 182.561 29.1381 182.491 28.5501H180.517C180.601 29.9921 181.959 31.1261 183.905 31.1261C185.795 31.1261 186.957 30.1181 186.957 28.7881Z" fill="white"/>
<path d="M188.874 28.5921C188.874 30.3701 189.868 31.0001 191.352 31.0001H192.584V29.3481H191.674C191.058 29.3481 190.848 29.1241 190.848 28.6061V24.8541H192.584V23.2441H190.848V21.3261H188.874V23.2441H187.95V24.8541H188.874V28.5921Z" fill="white"/>
<path d="M195.953 27.1361C195.953 25.6381 196.653 25.1901 197.815 25.1901H198.333V23.1321C197.255 23.1321 196.443 23.6501 195.953 24.4481V23.2441H193.993V31.0001H195.953V27.1361Z" fill="white"/>
<path d="M199.149 27.0941C199.149 29.5161 200.717 31.1261 202.677 31.1261C203.91 31.1261 204.792 30.5381 205.254 29.8661V31.0001H207.228V23.2441H205.254V24.3501C204.792 23.7061 203.938 23.1181 202.691 23.1181C200.717 23.1181 199.149 24.6721 199.149 27.0941ZM205.254 27.1221C205.254 28.5921 204.274 29.4041 203.196 29.4041C202.146 29.4041 201.151 28.5641 201.151 27.0941C201.151 25.6241 202.146 24.8401 203.196 24.8401C204.274 24.8401 205.254 25.6521 205.254 27.1221Z" fill="white"/>
<path d="M209.45 28.5921C209.45 30.3701 210.444 31.0001 211.928 31.0001H213.16V29.3481H212.25C211.634 29.3481 211.424 29.1241 211.424 28.6061V24.8541H213.16V23.2441H211.424V21.3261H209.45V23.2441H208.526V24.8541H209.45V28.5921Z" fill="white"/>
<path d="M214.57 31.0001H216.53V23.2441H214.57V31.0001ZM215.564 22.3201C216.25 22.3201 216.768 21.8161 216.768 21.1721C216.768 20.5281 216.25 20.0241 215.564 20.0241C214.864 20.0241 214.36 20.5281 214.36 21.1721C214.36 21.8161 214.864 22.3201 215.564 22.3201Z" fill="white"/>
<path d="M225.956 27.1221C225.956 24.6721 224.206 23.1181 221.966 23.1181C219.726 23.1181 217.976 24.6721 217.976 27.1221C217.976 29.5581 219.67 31.1261 221.91 31.1261C224.164 31.1261 225.956 29.5581 225.956 27.1221ZM219.964 27.1221C219.964 25.5681 220.902 24.8261 221.938 24.8261C222.974 24.8261 223.94 25.5681 223.94 27.1221C223.94 28.6621 222.946 29.4181 221.91 29.4181C220.86 29.4181 219.964 28.6621 219.964 27.1221Z" fill="white"/>
<path d="M232.826 31.0001H234.786V26.4501C234.786 24.3081 233.498 23.1321 231.692 23.1321C230.698 23.1321 229.858 23.5521 229.354 24.2101V23.2441H227.394V31.0001H229.354V26.7161C229.354 25.4701 230.04 24.7981 231.104 24.7981C232.14 24.7981 232.826 25.4701 232.826 26.7161V31.0001Z" fill="white"/>
<path d="M239.986 31.0001H241.946V26.8701H245.068V25.3161H241.946V22.8101H246.02V21.2281H239.986V31.0001Z" fill="white"/>
<path d="M249.369 27.1361C249.369 25.6381 250.069 25.1901 251.231 25.1901H251.749V23.1321C250.671 23.1321 249.859 23.6501 249.369 24.4481V23.2441H247.409V31.0001H249.369V27.1361Z" fill="white"/>
<path d="M252.566 27.0941C252.566 29.5161 254.134 31.1261 256.094 31.1261C257.326 31.1261 258.208 30.5381 258.67 29.8661V31.0001H260.644V23.2441H258.67V24.3501C258.208 23.7061 257.354 23.1181 256.108 23.1181C254.134 23.1181 252.566 24.6721 252.566 27.0941ZM258.67 27.1221C258.67 28.5921 257.69 29.4041 256.612 29.4041C255.562 29.4041 254.568 28.5641 254.568 27.0941C254.568 25.6241 255.562 24.8401 256.612 24.8401C257.69 24.8401 258.67 25.6521 258.67 27.1221Z" fill="white"/>
<path d="M273.408 31.0001H275.368V26.4501C275.368 24.3081 274.052 23.1321 272.19 23.1321C271.056 23.1321 270.034 23.7341 269.53 24.6161C268.998 23.6501 268.004 23.1321 266.8 23.1321C265.834 23.1321 265.008 23.5381 264.518 24.1821V23.2441H262.558V31.0001H264.518V26.7161C264.518 25.4841 265.204 24.8401 266.268 24.8401C267.304 24.8401 267.99 25.4841 267.99 26.7161V31.0001H269.95V26.7161C269.95 25.4841 270.636 24.8401 271.686 24.8401C272.722 24.8401 273.408 25.4841 273.408 26.7161V31.0001Z" fill="white"/>
<path d="M280.56 24.7281C281.568 24.7281 282.38 25.3721 282.408 26.3941H278.726C278.88 25.3301 279.622 24.7281 280.56 24.7281ZM284.242 28.5641H282.128C281.876 29.0821 281.414 29.5021 280.574 29.5021C279.594 29.5021 278.81 28.8581 278.712 27.7101H284.382C284.424 27.4581 284.438 27.2061 284.438 26.9541C284.438 24.6441 282.856 23.1181 280.616 23.1181C278.32 23.1181 276.724 24.6721 276.724 27.1221C276.724 29.5581 278.362 31.1261 280.616 31.1261C282.534 31.1261 283.822 29.9921 284.242 28.5641Z" fill="white"/>
<path d="M287.282 31.0001H289.41L290.824 25.5821L292.238 31.0001H294.352L296.62 23.2441H294.744L293.372 29.1381L291.916 23.2441H289.844L288.36 29.1521L286.988 23.2441H285L287.282 31.0001Z" fill="white"/>
<path d="M305.171 27.1221C305.171 24.6721 303.421 23.1181 301.181 23.1181C298.941 23.1181 297.191 24.6721 297.191 27.1221C297.191 29.5581 298.885 31.1261 301.125 31.1261C303.379 31.1261 305.171 29.5581 305.171 27.1221ZM299.179 27.1221C299.179 25.5681 300.117 24.8261 301.153 24.8261C302.189 24.8261 303.155 25.5681 303.155 27.1221C303.155 28.6621 302.161 29.4181 301.125 29.4181C300.075 29.4181 299.179 28.6621 299.179 27.1221Z" fill="white"/>
<path d="M308.569 27.1361C308.569 25.6381 309.269 25.1901 310.431 25.1901H310.949V23.1321C309.871 23.1321 309.059 23.6501 308.569 24.4481V23.2441H306.609V31.0001H308.569V27.1361Z" fill="white"/>
<path d="M312.269 31.0001H314.229V27.6961L316.861 31.0001H319.409L315.965 27.1361L319.381 23.2441H316.833L314.229 26.5341V20.6401H312.269V31.0001Z" fill="white"/>
<g clip-path="url(#clip0)">
<path d="M0.700024 29.4999C0.500024 29.2999 0.400024 29.0999 0.400024 28.7999V1.3999C0.400024 1.0999 0.500024 0.899902 0.700024 0.699902C0.900024 0.499902 1.10002 0.399902 1.40002 0.399902H2.40002C2.80002 0.399902 3.10002 0.599902 3.30002 0.899902L12.8 19.3999L22.4 0.999902C22.6 0.599902 22.9 0.499902 23.3 0.499902H24.3C24.6 0.499902 24.8 0.599902 25 0.799902C25.2 0.999902 25.3 1.1999 25.3 1.4999V28.8999C25.3 29.1999 25.2 29.3999 25 29.5999C24.8 29.7999 24.6 29.8999 24.3 29.8999H23.5C23.2 29.8999 23 29.7999 22.8 29.5999C22.6 29.3999 22.5 29.1999 22.5 28.8999V6.1999L14.5 21.8999C14.2 22.4999 13.8 22.6999 13.2 22.6999H12.3C11.7 22.6999 11.3 22.3999 11 21.8999L3.00002 6.1999V28.8999C3.00002 29.1999 2.90002 29.3999 2.70002 29.5999C2.50002 29.7999 2.30002 29.8999 2.00002 29.8999H1.40002C1.10002 29.7999 0.900024 29.6999 0.700024 29.4999Z" fill="#00B6ED" stroke="#00B6ED" stroke-width="0.9203" stroke-miterlimit="10" stroke-linecap="round" stroke-linejoin="round"/>
<path d="M32.5001 29.4999C32.3001 29.2999 32.2001 29.0999 32.2001 28.7999V1.3999C32.2001 1.0999 32.3001 0.899902 32.5001 0.699902C32.7001 0.499902 32.9001 0.399902 33.2001 0.399902H34.0001C34.3001 0.399902 34.5001 0.499902 34.7001 0.699902C34.9001 0.899902 35.0001 1.0999 35.0001 1.3999V27.2999H49.4001C49.7001 27.2999 49.9001 27.3999 50.1001 27.5999C50.3001 27.7999 50.4001 27.9999 50.4001 28.2999V28.8999C50.4001 29.1999 50.3001 29.3999 50.1001 29.5999C49.9001 29.7999 49.7001 29.8999 49.4001 29.8999H33.2001C32.9001 29.7999 32.7001 29.6999 32.5001 29.4999Z" fill="#00B6ED" stroke="#00B6ED" stroke-width="0.9203" stroke-miterlimit="10" stroke-linecap="round" stroke-linejoin="round"/>
<path d="M54.6 29.4999C54.4 29.2999 54.3 29.0999 54.3 28.7999V1.3999C54.3 1.0999 54.4 0.899902 54.6 0.699902C54.8 0.499902 55 0.399902 55.3 0.399902H65.1C68.1 0.399902 70.5 1.0999 72.2 2.4999C73.9 3.8999 74.8001 5.9999 74.8001 8.7999C74.8001 10.9999 74.3 12.7999 73.2 14.0999C72.1 15.4999 70.5 16.3999 68.5 16.7999L75.2 28.2999C75.3 28.4999 75.3001 28.5999 75.3001 28.7999C75.3001 28.9999 75.2001 29.1999 75 29.3999C74.8 29.5999 74.6001 29.6999 74.4001 29.6999H73.9001C73.5001 29.6999 73.2001 29.5999 73 29.3999C72.8 29.1999 72.6001 28.8999 72.4001 28.4999L65.7 17.1999H57V28.6999C57 28.9999 56.9001 29.1999 56.7001 29.3999C56.5001 29.5999 56.3 29.6999 56 29.6999H55.2001C55.0001 29.7999 54.8 29.6999 54.6 29.4999ZM64.9001 14.8999C67.3001 14.8999 69.1001 14.3999 70.3001 13.3999C71.5001 12.3999 72.1 10.8999 72.1 8.8999C72.1 6.8999 71.5001 5.3999 70.3001 4.3999C69.1001 3.3999 67.3001 2.8999 64.9001 2.8999H57V14.7999H64.9001V14.8999Z" fill="#00B6ED" stroke="#00B6ED" stroke-width="0.9203" stroke-miterlimit="10" stroke-linecap="round" stroke-linejoin="round"/>
<path d="M81.7 27.6C80.3 25.9 79.6 23.6 79.6 20.8V8.9C79.6 8.6 79.7 8.4 79.9 8.2C80 8.1 80.2 8 80.5 8H81.2C81.5 8 81.7 8.1 81.9 8.3C82.1 8.5 82.2 8.7 82.2 9V20.7C82.2 25.5 84.3 27.9 88.4 27.9C90.4 27.9 92 27.3 93.2 26C94.4 24.7 95 23 95 20.7V8.9C95 8.6 95.1 8.4 95.3 8.2C95.4 8.1 95.6 8 95.9 8H96.6C96.9 8 97.1 8.1 97.3 8.3C97.5 8.5 97.6 8.7 97.6 9V28.9C97.6 29.2 97.5 29.4 97.3 29.6C97.1 29.8 96.9 29.9 96.6 29.9H95.9C95.6 29.9 95.4 29.8 95.2 29.6C95 29.4 95 29.1 95 28.8V26.8C94.2 27.9 93.2 28.7 92.1 29.3C91 29.9 89.7 30.1 88 30.1C85.2 30.2 83.2 29.3 81.7 27.6Z" fill="#00B6ED" stroke="#00B6ED" stroke-width="0.9203" stroke-miterlimit="10" stroke-linecap="round" stroke-linejoin="round"/>
<path d="M103.7 29.4999C103.5 29.2999 103.4 29.0999 103.4 28.7999V8.89985C103.4 8.59985 103.5 8.39985 103.7 8.19985C103.9 7.99985 104.1 7.89985 104.4 7.89985H105.1C105.4 7.89985 105.6 7.99985 105.8 8.19985C106 8.39985 106.1 8.59985 106.1 8.89985V10.8999C106.9 9.79985 107.9 8.99985 109 8.39985C110.1 7.79985 111.5 7.59985 113.2 7.59985C115.9 7.59985 118 8.49985 119.5 10.1999C121 11.8999 121.7 14.1999 121.7 16.9999V28.8999C121.7 29.1999 121.6 29.3999 121.4 29.5999C121.2 29.7999 121 29.8999 120.7 29.8999H120C119.7 29.8999 119.5 29.7999 119.3 29.5999C119.1 29.3999 119 29.1999 119 28.8999V17.1999C119 14.8999 118.4 13.1999 117.3 11.8999C116.2 10.5999 114.6 9.99985 112.5 9.99985C110.5 9.99985 108.9 10.5999 107.7 11.8999C106.5 13.1999 105.9 14.8999 105.9 17.1999V28.8999C105.9 29.1999 105.8 29.3999 105.6 29.5999C105.4 29.7999 105.2 29.8999 104.9 29.8999H104.2C104.1 29.7999 103.9 29.6999 103.7 29.4999Z" fill="#00B6ED" stroke="#00B6ED" stroke-width="0.9203" stroke-miterlimit="10" stroke-linecap="round" stroke-linejoin="round"/>
</g>
<defs>
<clipPath id="clip0">
<rect width="122.1" height="30.6" fill="white"/>
</clipPath>
</defs>
</svg>
