<svg width="20" height="20" viewBox="0 0 20 20" fill="none" xmlns="http://www.w3.org/2000/svg">
<path d="M13.786 13.403C13.786 13.403 16.641 10.548 17.617 9.574C20.68 6.511 19.148 0.383 19.148 0.383C19.148 0.383 13.02 -1.149 9.957 1.915C7.667 4.205 6.141 5.782 6.141 5.782C6.141 5.782 2.298 4.978 0 7.276L12.255 19.531C14.553 17.233 13.786 13.403 13.786 13.403ZM12.284 4.418C12.4696 4.23211 12.69 4.08463 12.9326 3.98401C13.1752 3.88339 13.4353 3.8316 13.698 3.8316C13.9607 3.8316 14.2208 3.88339 14.4634 3.98401C14.706 4.08463 14.9264 4.23211 15.112 4.418C15.3918 4.69768 15.5823 5.05405 15.6595 5.44202C15.7367 5.83 15.6972 6.23217 15.5458 6.59765C15.3945 6.96314 15.1381 7.27554 14.8092 7.49532C14.4803 7.71511 14.0936 7.83243 13.698 7.83243C13.3024 7.83243 12.9157 7.71511 12.5868 7.49532C12.2579 7.27554 12.0015 6.96314 11.8502 6.59765C11.6988 6.23217 11.6593 5.83 11.7365 5.44202C11.8137 5.05405 12.0042 4.69768 12.284 4.418ZM0.971 18.529C0.971 18.529 3.971 18.529 5.971 16.529L2.971 13.529C0.971 14.529 0.971 18.529 0.971 18.529Z" fill="#00B6ED"/>
</svg>
