<svg width="30" height="30" viewBox="0 0 30 30" fill="none" xmlns="http://www.w3.org/2000/svg">
<path d="M17.25 17.25L22.5 22.5L17.25 17.25ZM13.125 18.75C13.8637 18.75 14.5951 18.6045 15.2776 18.3218C15.9601 18.0391 16.5801 17.6248 17.1025 17.1025C17.6248 16.5801 18.0391 15.9601 18.3218 15.2776C18.6045 14.5951 18.75 13.8637 18.75 13.125C18.75 12.3863 18.6045 11.6549 18.3218 10.9724C18.0391 10.2899 17.6248 9.66985 17.1025 9.14752C16.5801 8.62519 15.9601 8.21086 15.2776 7.92818C14.5951 7.6455 13.8637 7.5 13.125 7.5C11.6332 7.5 10.2024 8.09263 9.14752 9.14752C8.09263 10.2024 7.5 11.6332 7.5 13.125C7.5 14.6168 8.09263 16.0476 9.14752 17.1025C10.2024 18.1574 11.6332 18.75 13.125 18.75V18.75Z" stroke="white" stroke-width="2"/>
</svg>
