<svg width="24" height="24" viewBox="0 0 24 24" fill="none" xmlns="http://www.w3.org/2000/svg">
<path fill-rule="evenodd" clip-rule="evenodd" d="M8.94046 0C7.65638 0 6.61869 1.04084 6.62343 2.31824C6.62343 3.60038 7.66112 4.63649 8.9452 4.63649H11.267V2.31824C11.2622 1.04084 10.2245 0 8.94046 0C8.9452 0 8.9452 0 8.94046 0ZM8.94046 6.18829H2.76171C1.47763 6.18829 0.439941 7.22914 0.439941 8.50654C0.439941 9.78867 1.47763 10.8248 2.75697 10.8248H8.94046C10.2245 10.8248 11.2622 9.78394 11.2622 8.50654C11.2622 7.22441 10.2245 6.18829 8.94046 6.18829Z" fill="white"/>
<path fill-rule="evenodd" clip-rule="evenodd" d="M23.6293 8.50654C23.6293 7.22441 22.5916 6.18829 21.3075 6.18829C20.0234 6.18829 18.9857 7.22914 18.9857 8.50654V10.8248H21.3075C22.5916 10.8248 23.6293 9.78867 23.6293 8.50654ZM17.4457 8.50654V2.31824C17.4457 1.04084 16.408 0 15.1287 0C13.8446 0 12.8069 1.04084 12.8069 2.31824V8.50654C12.8069 9.78867 13.8446 10.8248 15.1239 10.8248C16.408 10.8248 17.4457 9.78867 17.4457 8.50654Z" fill="white"/>
<path fill-rule="evenodd" clip-rule="evenodd" d="M15.1287 23.2013C16.4127 23.2013 17.4504 22.1605 17.4504 20.8831C17.4504 19.601 16.4127 18.5649 15.1287 18.5649H12.8069V20.8831C12.8069 22.1605 13.8446 23.2013 15.1287 23.2013ZM15.1287 17.013H21.3121C22.5962 17.013 23.6339 15.9722 23.6339 14.6948C23.6339 13.4127 22.5962 12.3766 21.3169 12.3718H15.1287C13.8446 12.3718 12.8069 13.4127 12.8069 14.6901C12.8069 15.9722 13.8446 17.013 15.1287 17.013Z" fill="white"/>
<path fill-rule="evenodd" clip-rule="evenodd" d="M0.439941 14.6948C0.439941 15.9769 1.47764 17.013 2.76173 17.013C4.04582 17.013 5.08352 15.9722 5.08352 14.6948V12.3766H2.76173C1.47764 12.3766 0.439941 13.4127 0.439941 14.6948ZM6.62349 14.6948V20.8831C6.62349 22.1652 7.66118 23.2013 8.94054 23.2061C10.2246 23.2061 11.2623 22.1652 11.2623 20.8878V14.6948C11.2623 13.4127 10.2246 12.3766 8.94528 12.3718C7.66118 12.3766 6.62349 13.4127 6.62349 14.6948Z" fill="white"/>
</svg>
